<svg xmlns="http://www.w3.org/2000/svg" viewBox="0 0 600 600" xml:space="preserve"><path fill="#fbfbfb" d="M103.273 150.736c-11.187-18.14-22.18-35.97-33.511-54.353 1.511-.115 2.54-.261 3.568-.262 40.66-.012 81.32.027 121.98-.086 3.198-.01 5.03.865 6.751 3.663 42.892 69.724 85.897 139.377 128.865 209.053 23.841 38.66 47.607 77.367 71.581 115.945 1.614 2.596 4.38 5.214 7.175 6.173 4.633 1.59 9.005-1.912 9.607-6.82.303-2.47.227-4.99.228-7.488.012-30.495.003-60.99.013-91.485 0-1.304.133-2.608.21-4.023h13.977v6.117q0 72.988-.002 145.975c-.001 19.95-12.832 32.73-32.843 32.732-24.83.001-49.658-.053-74.487.09-3.074.017-4.69-.977-6.282-3.563-48.735-79.215-97.554-158.378-146.375-237.54-23.404-37.95-46.84-75.88-70.455-114.128"/><path fill="#f9f9f9" d="M490.97 185.167a9096 9096 0 0 0 29.198 8.732c-51.272 8.817-82.591 39.76-92.658 91.752-10.146-52.735-42.137-83.659-94.718-91.99 52.448-8.253 84.346-39.075 94.876-92.656 6.448 39.087 26.887 67.45 63.302 84.162"/></svg>